# xmcd
#
# Track frame offsets: 
#        150
#        14865
#        31544
#        47331
#        62060
#        75524
#        90636
#        104737
#        117346
#        134861
#        147845
#        160329
#        174648
#        187134
#        198636
#
# Disc length: 2854 seconds
#
# Revision: 0
# Processed by: cddbd v1.5.2PL0 Copyright (c) Steve Scherf et al.
# Submitted via: ExactAudioCopyFreeDBPlugin 1.0
#
DISCID=d90b240f
DTITLE=Joan Sebastian - Al 100
DYEAR=2013
DGENRE=Latin
TTITLE0=Contigo O Sin Ti
TTITLE1=Como Guitarra En Serenata
TTITLE2=Manantial De Llanto
TTITLE3=Vete O Me Voy
TTITLE4=Amorcito Moi
TTITLE5=Un Idiota
TTITLE6=El Perdedor
TTITLE7=Nube Gris
TTITLE8=Que Si Me Duele Tu Adios
TTITLE9=Recuerdame Bonito
TTITLE10=Lobo Domesticado
TTITLE11=Pirata
TTITLE12=Hoy Empieza Mi Tristesa
TTITLE13=Se Esta Volviendo Loco
TTITLE14=Mascarada
EXTD=
EXTT0=Contigo O Sin Ti
EXTT1=
EXTT2=
EXTT3=
EXTT4=
EXTT5=
EXTT6=
EXTT7=
EXTT8=
EXTT9=
EXTT10=
EXTT11=
EXTT12=
EXTT13=
EXTT14=
PLAYORDER=
